<svg width="4838" height="2721" xmlns="http://www.w3.org/2000/svg" xmlns:xlink="http://www.w3.org/1999/xlink" overflow="hidden"><defs><clipPath id="clip0"><rect x="0" y="0" width="4838" height="2721"/></clipPath></defs><g clip-path="url(#clip0)"><rect x="0" y="0" width="4838" height="2720.57" fill="#FF00FF"/><path d="M992.678-265.558 1227.04-265.558 1221.82-235.963 1119.04-235.963 1104.51-153.576 1187.7-153.576 1182.48-123.981 1099.29-123.981 1080.32-16.3974 1193.9-16.3974 1188.69 13.1979 933.126 13.1979 938.345-16.3974 1050.33-16.3974 1069.3-123.981 987.71-123.981 992.928-153.576 1074.52-153.576 1089.04-235.963 987.459-235.963ZM784.762-319.15 779.331-288.355 673.445-270.757 656.52-174.773 808.896-174.773 803.536-144.377 651.16-144.377 622.035 20.7967 590.84 20.7967 619.965-144.377 469.588-144.377 474.948-174.773 625.324-174.773 641.262-265.158 529.565-246.361 534.924-276.757ZM1079.27-321.15 1114.06-321.15 1132-273.157 1096.8-273.157ZM986.083-321.15 1018.48-321.15 961.653-221.165 918.988 20.7967 889.393 20.7967 918.729-145.577 909.228-127.98 876.833-127.98ZM279.793-321.15 310.189-321.15 284.942-177.972 411.382-253.16 404.965-216.766 278.595-141.978 255.676-11.9981 371.258-11.9981 366.18 16.7974 220.203 16.7974ZM197.406-321.15 227.802-321.15 167.506 20.7967 137.111 20.7967 151.356-59.9906 29.009 12.3981 35.2854-23.1964 157.703-95.9849 173.993-188.37 67.2102-188.37 72.4992-218.366 179.282-218.366Z" stroke="#FFFFFF" stroke-width="5.99906" stroke-linejoin="round" stroke-miterlimit="10" fill="#FF0000" fill-rule="evenodd" transform="matrix(1.00016 0 0 1 469.148 608.384)"/><text fill="#000000" fill-opacity="0" font-family="Arial,Arial_MSFontService,sans-serif" font-size="341.946" x="29.009" y="-21.9466">北千住</text><path d="M281.387-196.369 317.781-196.369 265.751-137.178 307.744-137.178 302.737-108.783 233.548-108.783 227.272-73.1885 305.26-73.1885 300.182-44.393 222.194-44.393 210.699 20.7967 181.104 20.7967 192.599-44.393 114.611-44.393 119.689-73.1885 197.676-73.1885 203.953-108.783 135.164-108.783 140.171-137.178 229.357-137.178ZM148.208-196.369 184.202-196.369 211.358-143.977 175.364-143.977ZM992.678-265.558 1227.04-265.558 1221.82-235.963 1119.04-235.963 1104.51-153.576 1187.7-153.576 1182.48-123.981 1099.29-123.981 1080.32-16.3974 1193.9-16.3974 1188.69 13.1979 933.126 13.1979 938.345-16.3974 1050.33-16.3974 1069.3-123.981 987.71-123.981 992.928-153.576 1074.52-153.576 1089.04-235.963 987.459-235.963ZM784.762-319.15 779.331-288.355 673.445-270.757 656.52-174.773 808.896-174.773 803.536-144.377 651.16-144.377 622.035 20.7967 590.84 20.7967 619.965-144.377 469.588-144.377 474.948-174.773 625.324-174.773 641.262-265.158 529.565-246.361 534.924-276.757ZM1079.27-321.15 1114.06-321.15 1132-273.157 1096.8-273.157ZM986.083-321.15 1018.48-321.15 961.653-221.165 918.988 20.7967 889.393 20.7967 918.729-145.577 909.228-127.98 876.833-127.98ZM241.893-323.949 272.288-323.949 266.576-291.554 417.352-291.554 412.134-261.959 261.358-261.959 256.351-233.563 386.33-233.563 341.479 20.7967 311.483 20.7967 351.116-203.968 120.353-203.968 80.7197 20.7967 51.5243 20.7967 96.3757-233.563 225.955-233.563 230.962-261.959 80.186-261.959 85.4046-291.554 236.181-291.554Z" stroke="#FFFFFF" stroke-width="5.99906" stroke-linejoin="round" stroke-miterlimit="10" fill="#FF0000" fill-rule="evenodd" transform="matrix(1.00016 0 0 1 469.148 1088.31)"/><text fill="#000000" fill-opacity="0" font-family="Arial,Arial_MSFontService,sans-serif" font-size="344.746" x="51.5243" y="-22.2965">南千住</text><path d="M42.5547-23.5963 365.704-23.5963 360.133 7.99874 36.9836 7.99874ZM1151.05-133.979 1142.66-86.3864 1167.85-86.3864 1176.24-133.979ZM1098.66-133.979 1090.26-86.3864 1115.46-86.3864 1123.85-133.979ZM1046.26-133.979 1037.87-86.3864 1063.07-86.3864 1071.46-133.979ZM959.687-148.777 953.34-112.782 971.338-112.782 977.685-148.777ZM912.495-148.777 906.148-112.782 924.945-112.782 931.292-148.777ZM1023.79-160.775 1208.56-160.775 1176.55 20.7967 1148.95 20.7967 1163.2-59.9906 1138-59.9906 1124.32 17.5972 1097.12 17.5972 1110.81-59.9906 1085.61-59.9906 1071.93 17.5972 1044.73 17.5972 1058.41-59.9906 1033.22-59.9906 1018.97 20.7967 991.777 20.7967ZM124.239-171.573 336.606-171.573 331.105-140.378 118.738-140.378ZM970.195-208.367 964.906-178.372 982.903-178.372 988.192-208.367ZM923.002-208.367 917.713-178.372 936.51-178.372 941.799-208.367ZM1061.38-215.166 1189.76-215.166 1184.96-187.97 1056.58-187.97ZM772.155-297.553 803.75-297.553 729.32-86.3864 647.229 7.19887 469.257 7.19887 474.546-22.7964 636.12-22.7964 701.229-97.1847ZM112.999-298.353 392.555-298.353 386.984-266.758 107.428-266.758ZM961.686-321.15 990.082-321.15 984.158-287.555 1038.15-287.555 1033.14-259.159 979.151-259.159 975.131-236.363 1019.92-236.363 993.267-85.1866 948.474-85.1866 944.173-60.7905 998.564-60.7905 993.557-32.3949 939.166-32.3949 929.786 20.7967 901.391 20.7967 910.77-32.3949 858.378-32.3949 863.385-60.7905 915.777-60.7905 920.079-85.1866 875.286-85.1866 901.943-236.363 946.736-236.363 950.756-259.159 898.764-259.159 903.771-287.555 955.763-287.555ZM1144.95-323.949 1230.65-224.765 1223.52-184.371 1137.57-284.355 1019.65-187.171 1026.56-226.364Z" stroke="#FFFFFF" stroke-width="5.99906" stroke-linejoin="round" stroke-miterlimit="10" fill="#FF0000" fill-rule="evenodd" transform="matrix(1.00016 0 0 1 469.148 1568.23)"/><text fill="#000000" fill-opacity="0" font-family="Arial,Arial_MSFontService,sans-serif" font-size="344.746" x="36.9836" y="-22.2965">三ノ輪</text><path d="M557.816-100.384 542.372-12.798 683.95-12.798 699.394-100.384ZM650.043-221.965 541.838-129.98 725.809-129.98ZM657.378-263.559 796.721-94.3852 789.386-52.7917 733.315-120.381 709.056 17.1973 507.487 17.1973 531.958-121.581 451.439-52.7917 458.774-94.3852ZM681.132-307.552 722.726-307.552 803.433-209.567 796.099-167.974ZM608.744-307.552 650.337-307.552 484.736-166.774 492.07-208.367ZM160.919-311.551 275.701-311.551 248.339-156.375 365.475 20.7967 323.482 20.7967 225.523-126.78 75.5205 20.7967 34.327 20.7967 216.838-159.175 238.417-281.556 155.63-281.556Z" stroke="#FFFFFF" stroke-width="5.99906" stroke-linejoin="round" stroke-miterlimit="10" fill="#FF0000" fill-rule="evenodd" transform="matrix(1.00016 0 0 1 469.148 2048.16)"/><text fill="#000000" fill-opacity="0" font-family="Arial,Arial_MSFontService,sans-serif" font-size="332.348" x="34.327" y="-20.7467">入谷</text><path d="M582.313-221.165 575.543-182.771 606.738-182.771 613.508-221.165ZM520.723-221.165 513.953-182.771 547.147-182.771 553.917-221.165ZM593.596-285.155 586.897-247.161 618.092-247.161 624.791-285.155ZM532.006-285.155 525.306-247.161 558.501-247.161 565.201-285.155ZM510.194-311.151 656.171-311.151 628.95-156.775 570.959-156.775 564.189-118.381 633.378-118.381 628.301-89.5859 559.111-89.5859 551.143-44.393 620.823-60.7905 615.534-30.7952 440.227 10.7983 445.516-19.197 521.478-37.1942 530.716-89.5859 466.726-89.5859 471.803-118.381 535.793-118.381 542.563-156.775 482.973-156.775ZM667.251-312.751 814.828-312.751 734.763-194.369 813.551-194.369 763.478-96.3849 731.883-96.3849 766.739-164.774 724.745-164.774 692.729 16.7974 626.339 16.7974 631.276-11.1982 668.47-11.1982 695.55-164.774 633.96-164.774 639.178-194.369 700.369-194.369 677.798-265.958 710.592-265.958 723.137-225.965 761.617-283.156 662.033-283.156ZM230.86-320.35 263.255-320.35 243.439-207.967 381.817-207.967 376.316-176.772 237.938-176.772 209.518-15.5976 369.893-15.5976 364.322 15.9975 30.374 15.9975 35.9451-15.5976 177.123-15.5976Z" stroke="#FFFFFF" stroke-width="5.99906" stroke-linejoin="round" stroke-miterlimit="10" fill="#FF0000" fill-rule="evenodd" transform="matrix(1.00016 0 0 1 469.148 2528.08)"/><text fill="#000000" fill-opacity="0" font-family="Arial,Arial_MSFontService,sans-serif" font-size="337.147" x="30.374" y="-25.346">上野</text><path d="M1398.71-178.772 1378.89-66.3896 1413.29-66.3896 1433.1-178.772ZM1335.92-178.772 1316.1-66.3896 1350.5-66.3896 1370.31-178.772ZM306.272-233.163 288.289-131.179 353.479-131.179 371.462-233.163ZM208.688-233.163 190.705-131.179 256.694-131.179 274.677-233.163ZM965.933-236.363 1000.33-236.363 951.426-176.772 916.588 20.7967 886.993 20.7967 913.721-130.779 906.97-121.981 872.575-121.981ZM536.716-248.361 566.312-248.361 539.405-202.368 500.054 20.7967 472.858 20.7967 500.361-135.179 492.835-121.981 463.24-121.981ZM1484.75-281.156 1651.52-281.156 1646.24-251.161 1592.24-251.161 1544.57 19.197 1464.18 19.197 1469.19-9.19856 1519.58-9.19856 1562.25-251.161 1479.46-251.161ZM1416.97-282.356 1403.36-205.168 1437.76-205.168 1451.37-282.356ZM1354.18-282.356 1340.57-205.168 1374.97-205.168 1388.58-282.356ZM731.736-308.752 832.52-308.752 782.662-25.9959 715.072-25.9959 720.009-53.9915 758.403-53.9915 798.106-279.156 754.913-279.156 702.022 20.7967 673.627 20.7967ZM1330.18-309.551 1484.56-309.551 1436.89-39.1938 1282.51-39.1938ZM976.484-321.15 1010.88-321.15 925.213-216.366 891.218-216.366ZM617.94-321.15 650.335-321.15 631.425-288.755 714.212-288.755 709.135-259.959 661.942-259.959 652.845-208.367 707.236-208.367 702.229-179.972 647.838-179.972 642.267-148.377 683.46-148.377 678.524-120.381 637.33-120.381 624.566-47.9925 676.508-63.59 671.149-33.1948 513.11 14.7977 518.469-15.5976 547.617-24.3962 569.619-149.177 597.215-149.177 576.764-33.1948 594.078-38.394 619.042-179.972 552.653-179.972 557.66-208.367 624.049-208.367 633.147-259.959 614.749-259.959 592.311-221.165 559.916-221.165ZM542.352-321.15 572.348-321.15 511.478-216.366 481.482-216.366ZM176.21-321.15 211.004-321.15 145.781-221.165 103.116 20.7967 72.321 20.7967 103.773-157.575 90.0374-136.379 55.2428-136.379ZM290.262-321.55 321.857-321.55 311.632-263.559 408.017-263.559 379.244-100.384 282.859-100.384 261.491 20.7967 229.896 20.7967 251.264-100.384 154.079-100.384 182.852-263.559 280.037-263.559ZM1110.82-323.149 1140.41-323.149 1132.65-279.156 1214.64-279.156 1209.56-250.361 1127.58-250.361 1118.2-197.169 1225.78-197.169 1220.7-168.374 1115.12-168.374 1107.78-126.78 1188.17-126.78 1182.95-97.1847 1102.57-97.1847 1088.04-14.7977 1192.82-14.7977 1187.53 15.1976 1049.95 15.1976 1011.41-65.5897 968.98 20.7967 938.185 20.7967 1017.33-139.978 1048.12-139.978 1029.42-101.984 1061.57-34.7945 1085.12-168.374 976.341-168.374 981.418-197.169 1088.6-197.169 1097.98-250.361 1015.99-250.361 1021.07-279.156 1103.06-279.156Z" stroke="#FFFFFF" stroke-width="5.99906" stroke-linejoin="round" stroke-miterlimit="10" fill="#FF0000" fill-rule="evenodd" transform="matrix(1.00016 0 0 1 2017.51 600.755)"/><text fill="#000000" fill-opacity="0" font-family="Arial,Arial_MSFontService,sans-serif" font-size="343.946" x="55.2428" y="-22.1965">仲御徒町</text><path d="M987.2-71.1888 1023.99-71.1888 950.935 11.9981 914.54 11.9981ZM1089.65-71.5888 1126.85-71.5888 1170.5 11.9981 1133.71 11.9981ZM617.005-113.982 645.4-113.982 641.804-93.5853 794.18-93.5853 789.243-65.5897 646.866-65.5897 779.088-7.99874 773.799 21.9965 632.354-39.9937 621.635 20.7967 593.239 20.7967 604.029-40.3937 441.122 21.5966 446.341-7.99874 597.673-65.5897 456.496-65.5897 461.432-93.5853 613.408-93.5853ZM995.916-152.376 990.416-121.181 1142.79-121.181 1148.29-152.376ZM663.549-205.568 659.107-180.372 709.099-180.372 713.542-205.568ZM1006.71-213.566 1001.21-182.371 1153.58-182.371 1159.08-213.566ZM644.11-256.36 672.506-256.36 668.627-234.363 718.619-234.363 722.498-256.36 750.893-256.36 747.015-234.363 820.203-234.363 815.126-205.568 741.937-205.568 732.981-154.776 626.198-154.776 635.154-205.568 567.964-205.568 557.245-144.777 766.412-144.777 761.335-115.982 522.572-115.982 538.369-205.568 479.978-205.568 485.056-234.363 543.447-234.363 546.832-253.56 576.427-253.56 573.042-234.363 640.231-234.363ZM370.398-267.958 401.993-267.958 349.405-157.975 318.21-157.975ZM213.623-267.958 245.218-267.958 258.62-157.975 227.025-157.975ZM930.069-311.951 1235.62-311.951 1230.54-283.156 1116.96-283.156 1087.18-243.562 1195.57-243.562 1168.7-91.1857 1076.71-91.1857 1056.97 20.7967 1026.17 20.7967 1045.92-91.1857 954.332-91.1857 981.2-243.562 1051.99-243.562 1081.77-283.156 956.187-283.156 911.124-27.5957 884.993 20.7967 852.998 20.7967 880.281-29.5954ZM217.662-320.35 212.373-290.354 168.31-283.156 158.578-227.964 210.57-227.964 205.422-198.769 153.43-198.769 148.635-171.573 189.839-96.7848 155.044-96.7848 140.172-123.581 114.714 20.7967 85.119 20.7967 107.968-108.783 36.4137-29.5954 45.3699-80.3874 116.924-159.575 123.835-198.769 66.2441-198.769 71.3922-227.964 128.983-227.964 137.869-278.356 86.7956-269.958 92.0142-299.553ZM303.39-321.15 333.385-321.15 300.381-133.979 365.475 20.7967 329.881 20.7967 279.637-97.9846 187.903 20.7967 152.708 20.7967 269.892-131.179ZM601.896-323.149 631.491-323.149 628.035-303.552 700.824-303.552 704.279-323.149 733.875-323.149 730.419-303.552 833.603-303.552 828.455-274.357 725.271-274.357 721.675-253.96 692.079-253.96 695.676-274.357 622.887-274.357 619.291-253.96 589.695-253.96 593.292-274.357 490.508-274.357 495.656-303.552 598.44-303.552Z" stroke="#FFFFFF" stroke-width="5.99906" stroke-linejoin="round" stroke-miterlimit="10" fill="#FF0000" fill-rule="evenodd" transform="matrix(1.00016 0 0 1 2017.51 1080.68)"/><text fill="#000000" fill-opacity="0" font-family="Arial,Arial_MSFontService,sans-serif" font-size="345.146" x="36.4137" y="-21.1467">秋葉原</text><path d="M952.947-65.1898 984.942-65.1898 1000.83 7.99874 968.837 7.99874ZM908.953-71.9887 942.148-71.9887 884.499 16.7974 851.304 16.7974ZM1016.96-74.3883 1048.55-74.3883 1063.93-2.79956 1032.33-2.79956ZM1080.95-81.1873 1112.54-81.1873 1126.9-15.1976 1095.31-15.1976ZM953.64-157.575 947.716-123.981 1028.5-123.981 1034.43-157.575ZM1398.71-178.772 1378.89-66.3896 1413.29-66.3896 1433.1-178.772ZM1335.92-178.772 1316.1-66.3896 1350.5-66.3896 1370.31-178.772ZM565.639-178.772 811.601-178.772 806.382-149.177 685.601-149.177 609.135-30.7952 721.918-30.7952 697.464-107.583 731.458-107.583 772.811 20.7967 738.816 20.7967 731.567-1.59975 731.497-1.19981 534.328-1.19981 539.546-30.7952 575.941-30.7952 652.406-149.177 560.421-149.177ZM964.712-220.365 958.717-186.371 1039.5-186.371 1045.5-220.365ZM315.99-224.765 349.584-224.765 378.731-67.9893 345.136-67.9893ZM130.019-224.765 163.214-224.765 79.5307-69.989 46.7358-69.989ZM1484.75-281.156 1651.52-281.156 1646.24-251.161 1592.24-251.161 1544.57 19.197 1464.18 19.197 1469.19-9.19856 1519.58-9.19856 1562.25-251.161 1479.46-251.161ZM1416.97-282.356 1403.36-205.168 1437.76-205.168 1451.37-282.356ZM1354.18-282.356 1340.57-205.168 1374.97-205.168 1388.58-282.356ZM975.784-283.156 969.789-249.161 1050.58-249.161 1056.57-283.156ZM614.792-291.954 801.963-291.954 796.744-262.359 609.573-262.359ZM1330.18-309.551 1484.56-309.551 1436.89-39.1938 1282.51-39.1938ZM950.678-313.151 1204.64-313.151 1199.35-283.156 1086.97-283.156 1080.97-249.161 1191.35-249.161 1186.28-220.365 1075.89-220.365 1069.9-186.371 1180.28-186.371 1175.21-157.575 1064.82-157.575 1058.9-123.981 1210.48-123.981 1155.35 20.7967 1123.76 20.7967 1167.59-93.9852 912.032-93.9852ZM575.547-321.15 607.942-321.15 551.329-222.365 508.453 20.7967 477.657 20.7967 506.994-145.577 497.092-127.98 464.297-127.98ZM241.799-321.15 272.995-321.15 212.699 20.7967 133.511 20.7967 138.8-9.19856 186.793-9.19856Z" stroke="#FFFFFF" stroke-width="5.99906" stroke-linejoin="round" stroke-miterlimit="10" fill="#FF0000" fill-rule="evenodd" transform="matrix(1.00016 0 0 1 2017.51 1560.6)"/><text fill="#000000" fill-opacity="0" font-family="Arial,Arial_MSFontService,sans-serif" font-size="341.946" x="46.7358" y="-21.9466">小伝馬町</text><path d="M799.4-109.583 793.265-74.7883 607.519 19.197 613.725-15.9975ZM987.773-178.772 967.956-66.3896 1002.35-66.3896 1022.17-178.772ZM924.983-178.772 905.166-66.3896 939.561-66.3896 959.377-178.772ZM810.442-217.566 804.307-182.771 633.028-95.9849 639.234-131.179ZM576.329-277.956 545.807-181.971 591.399-181.971 608.324-277.956ZM1073.82-281.156 1240.59-281.156 1235.3-251.161 1181.31-251.161 1133.64 19.197 1053.25 19.197 1058.26-9.19856 1108.65-9.19856 1151.31-251.161 1068.53-251.161ZM1006.04-282.356 992.427-205.168 1026.82-205.168 1040.43-282.356ZM943.248-282.356 929.637-205.168 964.032-205.168 977.642-282.356ZM511.488-307.152 680.662-307.152 675.514-277.956 638.72-277.956 621.795-181.971 668.587-181.971 663.439-152.776 616.646-152.776 586.04 20.7967 555.645 20.7967 586.251-152.776 536.259-152.776 480.857 20.7967 451.262 20.7967 506.664-152.776 469.07-152.776 474.218-181.971 516.211-181.971 546.734-277.956 506.34-277.956ZM919.248-309.551 1073.62-309.551 1025.95-39.1938 871.575-39.1938ZM819.862-316.35 813.727-281.556 658.257-202.768 664.462-237.963ZM240.2-321.15 272.195-321.15 243.069-155.976 366.275 20.7967 324.281 20.7967 222.112-125.58 72.321 20.7967 31.5274 20.7967 210.792-154.376Z" stroke="#FFFFFF" stroke-width="5.99906" stroke-linejoin="round" stroke-miterlimit="10" fill="#FF0000" fill-rule="evenodd" transform="matrix(1.00016 0 0 1 2017.51 2040.53)"/><text fill="#000000" fill-opacity="0" font-family="Arial,Arial_MSFontService,sans-serif" font-size="341.946" x="31.5274" y="-21.9466">人形町</text><path d="M576.086-169.973 810.449-169.973 805.583-142.378 658.006-142.378 645.469-127.98 793.846-127.98 759.518 16.7974 699.128 16.7974 703.712-9.19856 735.707-9.19856 757.455-100.784 744.257-100.784 641.137 16.7974 606.342 16.7974 709.063-100.784 685.067-100.784 588.885 9.19856 554.091 9.19856 650.272-100.784 621.477-100.784 578.808-51.5919 542.813-51.5919 622.012-142.378 571.22-142.378ZM987.773-178.772 967.956-66.3896 1002.35-66.3896 1022.17-178.772ZM924.983-178.772 905.166-66.3896 939.561-66.3896 959.377-178.772ZM650.512-235.963 645.857-209.567 749.441-209.567 754.096-235.963ZM108.538-236.763 367.697-236.763 249.987-147.577 396.764-147.577 317.141-67.9893 276.747-67.9893 326.756-117.981 239.169-117.981 214.699 20.7967 129.912 20.7967 134.919-7.59881 189.31-7.59881 204.402-93.1854 37.2415 1.99969 43.4474-33.1948 192.777-117.981 54.3985-117.981 59.617-147.577 194.796-147.577 149.549-197.169 194.742-197.169 225.283-163.974 282.491-207.167 103.319-207.167ZM1073.82-281.156 1240.59-281.156 1235.3-251.161 1181.31-251.161 1133.64 19.197 1053.25 19.197 1058.26-9.19856 1108.65-9.19856 1151.31-251.161 1068.53-251.161ZM1006.04-282.356 992.427-205.168 1026.82-205.168 1040.43-282.356ZM943.248-282.356 929.637-205.168 964.032-205.168 977.642-282.356ZM660.032-289.954 655.378-263.559 758.962-263.559 763.616-289.954ZM919.248-309.551 1073.62-309.551 1025.95-39.1938 871.575-39.1938ZM635.303-317.55 798.077-317.55 774.1-181.572 611.326-181.572ZM538.989-317.95 567.784-317.95 552.34-230.364 591.134-230.364 585.915-200.768 547.121-200.768 526.388-83.1869 555.723-97.5847 549.94-64.7898 444.458-13.1979 450.241-45.9928 494.842-67.5894 518.326-200.768 477.532-200.768 482.751-230.364 523.544-230.364ZM190.16-323.149 220.555-323.149 216.113-297.953 288.901-297.953 293.344-323.149 323.739-323.149 319.296-297.953 421.68-297.953 416.391-267.958 314.007-267.958 309.494-242.362 279.099-242.362 283.612-267.958 210.824-267.958 206.31-242.362 175.915-242.362 180.428-267.958 78.4443-267.958 83.7334-297.953 185.717-297.953Z" stroke="#FFFFFF" stroke-width="5.99906" stroke-linejoin="round" stroke-miterlimit="10" fill="#FF0000" fill-rule="evenodd" transform="matrix(1.00016 0 0 1 2017.51 2520.45)"/><text fill="#000000" fill-opacity="0" font-family="Arial,Arial_MSFontService,sans-serif" font-size="343.946" x="37.2415" y="-22.1965">茅場町</text></g></svg>